<svg width="121" height="121" viewBox="0 0 121 121" fill="none" xmlns="http://www.w3.org/2000/svg">
<mask id="mask0_225_65" style="mask-type:alpha" maskUnits="userSpaceOnUse" x="0" y="0" width="121" height="121">
<rect x="0.859131" y="120.66" width="120.125" height="120.125" transform="rotate(-90 0.859131 120.66)" fill="#D9D9D9"/>
</mask>
<g mask="url(#mask0_225_65)">
<path d="M84.6145 60.5342L65.7998 41.5595L63.4081 43.9513L78.2366 58.7802L44.9123 58.7802L44.9123 62.4476L78.2366 62.4476L63.4081 77.2766L65.7998 79.6683L84.6145 60.5342ZM120.331 60.6659C120.331 68.338 118.875 75.5257 115.963 82.2288C113.051 88.932 109.073 94.8091 104.029 99.8601C98.9843 104.911 93.1148 108.894 86.4204 111.81C79.726 114.725 72.5428 116.183 64.8709 116.183C57.1989 116.183 49.9849 114.727 43.2289 111.815C36.4727 108.903 30.5958 104.925 25.5982 99.8805C20.6005 94.8358 16.644 88.9661 13.7287 82.2715C10.8134 75.5769 9.35571 68.3935 9.35571 60.7214C9.35571 53.0492 10.8115 45.835 13.7231 39.0788C16.6348 32.3224 20.5863 26.4454 25.5776 21.4476C30.5691 16.4498 36.4386 12.4932 43.1861 9.57778C49.9337 6.66237 57.1434 5.20467 64.8154 5.20467C72.4873 5.20467 79.6747 6.66051 86.3777 9.57219C93.0807 12.484 98.9576 16.4356 104.008 21.4271C109.059 26.4186 113.042 32.2883 115.958 39.036C118.873 45.7838 120.331 52.9937 120.331 60.6659ZM116.823 60.6936C116.823 46.2367 111.774 33.959 101.675 23.8604C91.577 13.7619 79.2996 8.71259 64.8431 8.71259C50.3866 8.71259 38.1092 13.7619 28.011 23.8604C17.9127 33.959 12.8635 46.2367 12.8635 60.6936C12.8635 75.1505 17.9127 87.4283 28.011 97.5268C38.1092 107.625 50.3866 112.675 64.8431 112.675C79.2996 112.675 91.577 107.625 101.675 97.5268C111.774 87.4283 116.823 75.1505 116.823 60.6936Z" fill="#A39EB1"/>
</g>
</svg>
