<svg width="324" height="368" viewBox="0 0 324 368" fill="none" xmlns="http://www.w3.org/2000/svg">
<path d="M242.561 336.825V122.556C242.561 114.08 239.92 106.889 234.638 100.981C229.356 95.0743 222.999 92.1207 215.568 92.1207H27.6921C20.306 92.1207 13.9831 95.1157 8.72333 101.106C3.4636 107.096 0.83371 114.297 0.83371 122.708V275.649L81.4096 367.413H215.703C223.089 367.413 229.412 364.418 234.672 358.428C239.931 352.437 242.561 345.237 242.561 336.825ZM322.734 73.7679C324.167 65.3051 322.734 57.7346 318.437 51.0563C314.139 44.3781 308.275 40.2231 300.845 38.5916L115.52 1.1216C108.089 -0.509968 101.442 1.07036 95.5777 5.86258C89.7134 10.6548 86.065 17.2822 84.6326 25.7446L78.9923 61.533H106.119L110.82 31.2505L296.01 68.4149L269.42 240.627V308.684C274.433 307.358 278.798 304.605 282.513 300.425C286.229 296.245 288.579 291.045 289.564 284.825L322.734 73.7679ZM215.703 122.708V336.825H95.3762V259.743H27.6921V122.708H215.703Z" fill="url(#paint0_linear_225_83)"/>
<defs>
<linearGradient id="paint0_linear_225_83" x1="162.053" y1="0.5" x2="162.053" y2="367.413" gradientUnits="userSpaceOnUse">
<stop stop-color="#9F91CA"/>
<stop offset="1" stop-color="#9F91CA" stop-opacity="0"/>
</linearGradient>
</defs>
</svg>
